<?xml version="1.0" encoding="UTF-8" standalone="no"?>
<!-- Created with Inkscape (http://www.inkscape.org/) -->

<svg
   version="1.1"
   id="svg1"
   width="377.94666"
   height="207.88"
   viewBox="0 0 377.94666 207.88"
   sodipodi:docname="Pragmatex Logo White - strap.eps"
   xmlns:inkscape="http://www.inkscape.org/namespaces/inkscape"
   xmlns:sodipodi="http://sodipodi.sourceforge.net/DTD/sodipodi-0.dtd"
   xmlns="http://www.w3.org/2000/svg"
   xmlns:svg="http://www.w3.org/2000/svg">
  <defs
     id="defs1" />
  <sodipodi:namedview
     id="namedview1"
     pagecolor="#ffffff"
     bordercolor="#000000"
     borderopacity="0.25"
     inkscape:showpageshadow="2"
     inkscape:pageopacity="0.0"
     inkscape:pagecheckerboard="0"
     inkscape:deskcolor="#d1d1d1">
    <inkscape:page
       x="0"
       y="0"
       inkscape:label="1"
       id="page1"
       width="377.94666"
       height="207.88"
       margin="0"
       bleed="0" />
  </sodipodi:namedview>
  <g
     id="g1"
     inkscape:groupmode="layer"
     inkscape:label="1">
    <g
       id="group-R5">
      <path
         id="path2"
         d="m 2345.2,707.973 c 0,-31.68 -25.69,-57.364 -57.37,-57.364 H 546.813 c -31.68,0 -57.364,25.684 -57.364,57.364 v 251.699 c 0,31.68 25.684,57.368 57.364,57.368 H 2287.83 c 31.68,0 57.37,-25.688 57.37,-57.368 z m -57.37,325.677 H 546.813 c -40.793,0 -73.981,-33.19 -73.981,-73.978 V 707.973 c 0,-40.793 33.188,-73.981 73.981,-73.981 H 2287.83 c 40.79,0 73.98,33.188 73.98,73.981 v 251.699 c 0,40.788 -33.19,73.978 -73.98,73.978"
         style="fill:#ffffff;fill-opacity:1;fill-rule:nonzero;stroke:none"
         transform="matrix(0.13333333,0,0,-0.13333333,0,207.88)" />
      <path
         id="path3"
         d="m 2155.91,837.902 -50.51,67.7 c -3.36,4.503 -0.15,10.906 5.46,10.906 h 26.93 c 2.24,0 4.34,-1.106 5.62,-2.949 l 31.2,-45.254 c 2.67,-3.86 8.34,-3.946 11.12,-0.168 l 33.51,45.59 c 1.29,1.75 3.33,2.781 5.5,2.781 h 24.5 c 5.61,0 8.83,-6.403 5.47,-10.906 l -50.52,-67.7 c -1.8,-2.422 -1.8,-5.742 0,-8.164 l 50.52,-67.699 c 3.36,-4.5 0.14,-10.902 -5.47,-10.902 h -26.92 c -2.25,0 -4.35,1.101 -5.62,2.949 l -31.21,45.25 c -2.66,3.859 -8.34,3.949 -11.11,0.168 l -33.52,-45.586 c -1.28,-1.75 -3.33,-2.781 -5.5,-2.781 h -24.5 c -5.61,0 -8.82,6.402 -5.46,10.902 l 50.51,67.699 c 1.81,2.422 1.81,5.742 0,8.164"
         style="fill:#ffffff;fill-opacity:1;fill-rule:nonzero;stroke:none"
         transform="matrix(0.13333333,0,0,-0.13333333,0,207.88)" />
      <path
         id="path4"
         d="m 823.672,839.055 c 0,-3.762 3.047,-6.813 6.812,-6.813 h 46.629 c 25.192,0 36.555,12.903 36.555,27.649 0,14.746 -11.363,27.652 -36.555,27.652 h -46.629 c -3.765,0 -6.812,-3.055 -6.812,-6.816 z m -42.445,-35.782 h -9.411 c -3.765,0 -6.812,3.051 -6.812,6.813 v 15.344 c 0,3.761 3.047,6.812 6.812,6.812 h 9.411 c 3.765,0 6.812,3.051 6.812,6.813 v 70.64 c 0,3.766 3.051,6.813 6.816,6.813 h 85.024 c 43.004,0 69.418,-24.231 69.418,-56.617 0,-21.051 -14.93,-38.239 -36.051,-46.75 -4.308,-1.739 -5.785,-7.075 -2.844,-10.672 l 32.871,-40.211 c 3.637,-4.449 0.473,-11.121 -5.273,-11.121 h -27.125 c -2.113,0 -4.105,0.976 -5.395,2.652 l -36.148,46.836 c -1.289,1.672 -3.281,2.648 -5.391,2.648 h -33.457 c -3.765,0 -6.812,-3.05 -6.812,-6.808 v -38.52 c 0,-3.757 -3.051,-6.808 -6.817,-6.808 h -22 c -3.765,0 -6.816,3.051 -6.816,6.808 v 38.52 c 0,3.758 -3.047,6.808 -6.812,6.808"
         style="fill:#ffffff;fill-opacity:1;fill-rule:nonzero;stroke:none"
         transform="matrix(0.13333333,0,0,-0.13333333,0,207.88)" />
      <path
         id="path5"
         d="m 1079.19,819.313 -17.25,36.539 c -2.45,5.203 -9.83,5.214 -12.31,0.031 l -17.42,-36.539 c -2.16,-4.524 1.14,-9.746 6.15,-9.746 h 34.66 c 5,0 8.29,5.199 6.17,9.715 z m -58.14,69.804 h -14.98 c -3.76,0 -6.816,3.055 -6.816,6.817 v 13.761 c 0,3.766 3.056,6.813 6.816,6.813 h 57.49 c 2.59,0 4.96,-1.469 6.11,-3.793 l 74.97,-151.75 c 2.24,-4.527 -1.06,-9.828 -6.1,-9.828 h -23.12 c -2.64,0 -5.03,1.511 -6.16,3.89 l -11.05,23.286 c -1.13,2.378 -3.53,3.898 -6.16,3.898 h -73.08 c -2.64,0 -5.03,-1.52 -6.16,-3.898 l -11.05,-23.286 c -1.12,-2.379 -3.522,-3.89 -6.155,-3.89 h -22.656 c -5.094,0 -8.383,5.375 -6.074,9.906 l 60.235,118.168 c 2.32,4.539 -0.98,9.906 -6.06,9.906"
         style="fill:#ffffff;fill-opacity:1;fill-rule:nonzero;stroke:none"
         transform="matrix(0.13333333,0,0,-0.13333333,0,207.88)" />
      <path
         id="path6"
         d="m 1253.53,919.93 c 27.81,0 55.12,-8.852 76,-27.735 3.35,-3.027 2.95,-8.398 -0.85,-10.84 l -17.41,-11.203 c -2.77,-1.769 -6.36,-1.289 -8.64,1.075 -12.2,12.636 -29.4,19.738 -49.1,19.738 -34.72,0 -66.04,-25.016 -66.04,-57.145 0,-32.125 31.32,-57.14 66.04,-57.14 28.05,0 51.37,12.797 61.83,35.008 2.14,4.531 -1.15,9.753 -6.16,9.753 h -49.17 c -3.76,0 -6.81,3.055 -6.81,6.821 v 15.336 c 0,3.761 3.05,6.816 6.81,6.816 h 90.2 c 3.75,0 6.81,-3.055 6.81,-6.816 v -15.043 c 0,-27.121 -28.57,-80.84 -103.51,-80.84 -57.75,0 -103.52,37.652 -103.52,86.105 0,48.453 45.77,86.11 103.52,86.11"
         style="fill:#ffffff;fill-opacity:1;fill-rule:nonzero;stroke:none"
         transform="matrix(0.13333333,0,0,-0.13333333,0,207.88)" />
      <path
         id="path7"
         d="m 1400.86,910.16 69.96,-60.621 c 2.55,-2.223 6.36,-2.223 8.92,0 l 69.96,60.621 c 4.41,3.82 11.27,0.688 11.27,-5.148 V 757.945 c 0,-3.757 -3.05,-6.808 -6.81,-6.808 h -22 c -3.77,0 -6.82,3.051 -6.82,6.808 v 80.192 c 0,5.879 -6.94,9 -11.34,5.093 l -34.19,-30.398 c -2.59,-2.297 -6.48,-2.297 -9.06,0 l -34.2,30.398 c -4.4,3.907 -11.34,0.786 -11.34,-5.093 v -80.192 c 0,-3.757 -3.05,-6.808 -6.82,-6.808 h -22 c -3.76,0 -6.81,3.051 -6.81,6.808 v 147.067 c 0,5.836 6.86,8.968 11.28,5.148"
         style="fill:#ffffff;fill-opacity:1;fill-rule:nonzero;stroke:none"
         transform="matrix(0.13333333,0,0,-0.13333333,0,207.88)" />
      <path
         id="path8"
         d="m 1700.74,819.313 -17.24,36.539 c -2.45,5.203 -9.84,5.214 -12.31,0.031 l -17.42,-36.539 c -2.16,-4.524 1.13,-9.746 6.14,-9.746 h 34.67 c 5,0 8.29,5.199 6.16,9.715 z m -58.14,69.804 h -14.98 c -3.76,0 -6.81,3.055 -6.81,6.817 v 13.761 c 0,3.766 3.05,6.813 6.81,6.813 h 57.5 c 2.59,0 4.96,-1.469 6.11,-3.793 l 74.97,-151.75 c 2.24,-4.527 -1.06,-9.828 -6.11,-9.828 h -23.12 c -2.63,0 -5.03,1.511 -6.15,3.89 l -11.05,23.286 c -1.13,2.378 -3.53,3.898 -6.16,3.898 h -73.09 c -2.63,0 -5.03,-1.52 -6.15,-3.898 l -11.05,-23.286 c -1.13,-2.379 -3.52,-3.89 -6.16,-3.89 h -22.66 c -5.09,0 -8.38,5.375 -6.07,9.906 l 60.24,118.168 c 2.31,4.539 -0.98,9.906 -6.07,9.906"
         style="fill:#ffffff;fill-opacity:1;fill-rule:nonzero;stroke:none"
         transform="matrix(0.13333333,0,0,-0.13333333,0,207.88)" />
      <path
         id="path9"
         d="m 1798.08,887.543 h -42.89 c -3.76,0 -6.81,3.047 -6.81,6.809 v 15.343 c 0,3.766 3.05,6.813 6.81,6.813 h 135.04 c 3.76,0 6.81,-3.047 6.81,-6.813 v -15.343 c 0,-3.762 -3.05,-6.809 -6.81,-6.809 h -42.89 c -3.77,0 -6.82,-3.055 -6.82,-6.816 V 757.945 c 0,-3.757 -3.04,-6.808 -6.81,-6.808 h -22 c -3.77,0 -6.81,3.051 -6.81,6.808 v 122.782 c 0,3.761 -3.05,6.816 -6.82,6.816"
         style="fill:#ffffff;fill-opacity:1;fill-rule:nonzero;stroke:none"
         transform="matrix(0.13333333,0,0,-0.13333333,0,207.88)" />
      <path
         id="path10"
         d="m 1923.38,821.441 h -9.39 c -3.76,0 -6.82,3.059 -6.82,6.829 v 15.316 c 0,3.769 3.06,6.828 6.82,6.828 h 9.39 c 3.77,0 6.83,3.051 6.83,6.82 v 52.45 c 0,3.773 3.05,6.824 6.82,6.824 h 134.4 c 3.77,0 6.83,-3.051 6.83,-6.824 v -15.321 c 0,-3.769 -3.06,-6.82 -6.83,-6.82 h -98.77 c -3.77,0 -6.82,-3.059 -6.82,-6.828 v -23.481 c 0,-3.769 3.05,-6.82 6.82,-6.82 h 64.67 c 3.77,0 6.83,-3.059 6.83,-6.828 V 828.27 c 0,-3.77 -3.06,-6.829 -6.83,-6.829 h -64.67 c -3.77,0 -6.82,-3.05 -6.82,-6.82 v -27.695 c 0,-3.77 3.05,-6.824 6.82,-6.824 h 98.77 c 3.77,0 6.83,-3.051 6.83,-6.825 v -15.32 c 0,-3.766 -3.06,-6.82 -6.83,-6.82 h -134.4 c -3.77,0 -6.82,3.054 -6.82,6.82 v 56.664 c 0,3.77 -3.06,6.82 -6.83,6.82"
         style="fill:#ffffff;fill-opacity:1;fill-rule:nonzero;stroke:none"
         transform="matrix(0.13333333,0,0,-0.13333333,0,207.88)" />
      <path
         id="path11"
         d="m 627.77,839.055 c 0,-3.762 3.05,-6.813 6.816,-6.813 h 46.629 c 25.187,0 36.555,12.903 36.555,27.649 0,14.746 -11.368,27.652 -36.555,27.652 h -46.629 c -3.766,0 -6.816,-3.055 -6.816,-6.816 z m -42.442,-35.782 h -9.41 c -3.766,0 -6.813,3.051 -6.813,6.813 v 15.344 c 0,3.761 3.047,6.812 6.813,6.812 h 9.41 c 3.766,0 6.813,3.051 6.813,6.813 v 70.64 c 0,3.762 3.05,6.813 6.816,6.813 h 85.023 c 43.004,0 69.418,-24.231 69.418,-56.617 0,-32.391 -26.414,-56.618 -69.418,-56.618 h -49.394 c -3.766,0 -6.816,-3.05 -6.816,-6.808 v -38.52 c 0,-3.757 -3.047,-6.808 -6.813,-6.808 h -22 c -3.766,0 -6.816,3.051 -6.816,6.808 v 38.52 c 0,3.758 -3.047,6.808 -6.813,6.808"
         style="fill:#ffffff;fill-opacity:1;fill-rule:nonzero;stroke:none"
         transform="matrix(0.13333333,0,0,-0.13333333,0,207.88)" />
      <path
         id="path12"
         d="m 506.402,575.809 h 4.434 c 0.894,0 1.617,-0.723 1.617,-1.618 l 0.067,-45.992 c 0,-0.898 -0.727,-1.617 -1.622,-1.617 h -4.496 c -0.894,0 -1.617,0.719 -1.617,1.617 v 45.989 c 0,0.894 0.723,1.621 1.617,1.621"
         style="fill:#ffffff;fill-opacity:1;fill-rule:nonzero;stroke:none"
         transform="matrix(0.13333333,0,0,-0.13333333,0,207.88)" />
      <path
         id="path13"
         d="m 528.852,575.738 h 5.425 c 0.524,0 1.012,-0.254 1.321,-0.675 l 25.324,-35.473 h 0.414 l -0.133,34.523 c 0,0.895 0.723,1.625 1.613,1.625 h 4.5 c 0.895,0 1.614,-0.726 1.614,-1.621 v -45.988 c 0,-0.899 -0.719,-1.617 -1.614,-1.617 h -4.953 c -0.515,0 -1.004,0.25 -1.308,0.668 l -25.875,35.547 h -0.344 l 0.129,-34.598 c 0.008,-0.891 -0.715,-1.617 -1.613,-1.617 h -4.5 c -0.891,0 -1.614,0.718 -1.614,1.617 v 45.988 c 0,0.895 0.723,1.621 1.614,1.621"
         style="fill:#ffffff;fill-opacity:1;fill-rule:nonzero;stroke:none"
         transform="matrix(0.13333333,0,0,-0.13333333,0,207.88)" />
      <path
         id="path14"
         d="m 585.426,575.738 h 5.418 c 0.523,0 1.015,-0.254 1.32,-0.675 l 25.328,-35.473 h 0.41 l -0.132,34.523 c 0,0.895 0.722,1.625 1.621,1.625 h 4.492 c 0.894,0 1.621,-0.726 1.621,-1.621 v -45.988 c 0,-0.899 -0.727,-1.617 -1.621,-1.617 h -4.953 c -0.516,0 -1.004,0.25 -1.309,0.668 l -25.871,35.547 h -0.344 l 0.133,-34.598 c 0,-0.891 -0.723,-1.617 -1.621,-1.617 h -4.492 c -0.895,0 -1.621,0.718 -1.621,1.617 v 45.988 c 0,0.895 0.726,1.621 1.621,1.621"
         style="fill:#ffffff;fill-opacity:1;fill-rule:nonzero;stroke:none"
         transform="matrix(0.13333333,0,0,-0.13333333,0,207.88)" />
      <path
         id="path15"
         d="m 680.043,551.16 c 0,11.227 -6.57,18.762 -17.324,18.762 -10.539,0 -17.18,-7.535 -17.18,-18.762 0,-11.5 6.844,-18.762 17.25,-18.762 10.754,0 17.254,7.262 17.254,18.762 z m -42.449,0 c 0,14.856 9.859,25.676 25.195,25.676 15.406,0 25.262,-10.82 25.262,-25.676 0,-14.789 -9.789,-25.75 -25.262,-25.75 -15.336,0 -25.195,10.961 -25.195,25.75"
         style="fill:#ffffff;fill-opacity:1;fill-rule:nonzero;stroke:none"
         transform="matrix(0.13333333,0,0,-0.13333333,0,207.88)" />
      <path
         id="path16"
         d="m 694.957,575.809 h 5.066 c 0.68,0 1.286,-0.426 1.52,-1.055 l 15.152,-40.856 h 0.41 l 15.153,40.856 c 0.234,0.629 0.84,1.055 1.512,1.055 h 4.453 c 1.136,0 1.918,-1.149 1.507,-2.207 l -17.91,-46.063 c -0.242,-0.617 -0.843,-1.027 -1.507,-1.027 h -7.442 c -0.668,0 -1.266,0.41 -1.508,1.027 l -17.91,46.063 c -0.414,1.058 0.367,2.207 1.504,2.207"
         style="fill:#ffffff;fill-opacity:1;fill-rule:nonzero;stroke:none"
         transform="matrix(0.13333333,0,0,-0.13333333,0,207.88)" />
      <path
         id="path17"
         d="m 769.395,545.75 c 1.128,0 1.91,1.121 1.515,2.18 l -6.926,18.566 h -0.613 l -6.926,-18.566 c -0.394,-1.059 0.391,-2.18 1.516,-2.18 z m 3.804,-6.91 h -18.976 c -0.676,0 -1.278,-0.418 -1.516,-1.059 l -3.801,-10.222 c -0.238,-0.629 -0.84,-1.047 -1.519,-1.047 h -4.532 c -1.132,0 -1.917,1.136 -1.507,2.199 l 17.718,46.059 c 0.243,0.625 0.84,1.039 1.512,1.039 h 6.27 c 0.668,0 1.269,-0.414 1.507,-1.039 l 17.719,-46.059 c 0.41,-1.063 -0.371,-2.199 -1.508,-2.199 h -4.531 c -0.676,0 -1.281,0.418 -1.515,1.047 l -3.801,10.222 c -0.235,0.641 -0.84,1.059 -1.52,1.059"
         style="fill:#ffffff;fill-opacity:1;fill-rule:nonzero;stroke:none"
         transform="matrix(0.13333333,0,0,-0.13333333,0,207.88)" />
      <path
         id="path18"
         d="M 799.262,568.891 H 787.98 c -0.894,0 -1.617,0.726 -1.617,1.621 v 3.676 c 0,0.894 0.723,1.621 1.617,1.621 h 33.875 c 0.895,0 1.618,-0.727 1.618,-1.621 v -3.676 c 0,-0.895 -0.723,-1.621 -1.618,-1.621 h -11.421 c -0.891,0 -1.614,-0.723 -1.614,-1.614 l -0.066,-39.156 c -0.004,-0.891 -0.727,-1.609 -1.613,-1.609 h -4.512 c -0.895,0 -1.617,0.718 -1.617,1.609 l -0.129,39.156 c -0.004,0.895 -0.727,1.614 -1.621,1.614"
         style="fill:#ffffff;fill-opacity:1;fill-rule:nonzero;stroke:none"
         transform="matrix(0.13333333,0,0,-0.13333333,0,207.88)" />
      <path
         id="path19"
         d="m 834.992,575.809 h 4.438 c 0.894,0 1.617,-0.723 1.617,-1.618 l 0.062,-45.992 c 0,-0.898 -0.722,-1.617 -1.617,-1.617 h -4.5 c -0.894,0 -1.617,0.719 -1.617,1.617 v 45.989 c 0,0.894 0.723,1.621 1.617,1.621"
         style="fill:#ffffff;fill-opacity:1;fill-rule:nonzero;stroke:none"
         transform="matrix(0.13333333,0,0,-0.13333333,0,207.88)" />
      <path
         id="path20"
         d="m 895.363,551.16 c 0,11.227 -6.574,18.762 -17.324,18.762 -10.543,0 -17.184,-7.535 -17.184,-18.762 0,-11.5 6.844,-18.762 17.25,-18.762 10.754,0 17.258,7.262 17.258,18.762 z m -42.453,0 c 0,14.856 9.86,25.676 25.195,25.676 15.407,0 25.266,-10.82 25.266,-25.676 0,-14.789 -9.793,-25.75 -25.266,-25.75 -15.335,0 -25.195,10.961 -25.195,25.75"
         style="fill:#ffffff;fill-opacity:1;fill-rule:nonzero;stroke:none"
         transform="matrix(0.13333333,0,0,-0.13333333,0,207.88)" />
      <path
         id="path21"
         d="m 917.082,575.738 h 5.422 c 0.523,0 1.012,-0.254 1.316,-0.675 l 25.332,-35.473 h 0.411 l -0.133,34.523 c -0.004,0.895 0.722,1.625 1.617,1.625 h 4.496 c 0.895,0 1.617,-0.726 1.617,-1.621 v -45.988 c 0,-0.899 -0.722,-1.617 -1.617,-1.617 h -4.957 c -0.512,0 -1,0.25 -1.305,0.668 l -25.879,35.547 h -0.339 l 0.132,-34.598 c 0.004,-0.891 -0.722,-1.617 -1.617,-1.617 h -4.496 c -0.894,0 -1.617,0.718 -1.617,1.617 v 45.988 c 0,0.895 0.723,1.621 1.617,1.621"
         style="fill:#ffffff;fill-opacity:1;fill-rule:nonzero;stroke:none"
         transform="matrix(0.13333333,0,0,-0.13333333,0,207.88)" />
      <path
         id="path22"
         d="m 1062.41,568.891 h -11.29 c -0.89,0 -1.61,0.726 -1.61,1.621 v 3.676 c 0,0.894 0.72,1.621 1.61,1.621 H 1085 c 0.89,0 1.62,-0.727 1.62,-1.621 v -3.676 c 0,-0.895 -0.73,-1.621 -1.62,-1.621 h -11.42 c -0.89,0 -1.62,-0.723 -1.62,-1.614 l -0.06,-39.156 c 0,-0.891 -0.73,-1.609 -1.62,-1.609 h -4.51 c -0.89,0 -1.61,0.718 -1.61,1.609 l -0.13,39.156 c -0.01,0.895 -0.73,1.614 -1.62,1.614"
         style="fill:#ffffff;fill-opacity:1;fill-rule:nonzero;stroke:none"
         transform="matrix(0.13333333,0,0,-0.13333333,0,207.88)" />
      <path
         id="path23"
         d="m 1098.14,575.809 h 26.47 c 0.9,0 1.62,-0.727 1.62,-1.621 v -3.676 c 0,-0.895 -0.72,-1.621 -1.62,-1.621 h -18.8 c -0.9,0 -1.62,-0.723 -1.62,-1.618 V 556.27 c 0,-0.899 0.72,-1.622 1.62,-1.622 h 16.61 c 0.9,0 1.62,-0.718 1.62,-1.617 v -3.75 c 0,-0.89 -0.72,-1.609 -1.62,-1.609 h -16.61 c -0.89,0 -1.62,-0.731 -1.62,-1.633 l 0.06,-11 c 0,-0.898 0.73,-1.609 1.61,-1.609 h 18.82 c 0.9,0 1.62,-0.731 1.62,-1.621 v -3.68 c 0,-0.899 -0.72,-1.617 -1.62,-1.617 h -26.54 c -0.9,0 -1.62,0.718 -1.62,1.617 v 46.059 c 0,0.894 0.72,1.621 1.62,1.621"
         style="fill:#ffffff;fill-opacity:1;fill-rule:nonzero;stroke:none"
         transform="matrix(0.13333333,0,0,-0.13333333,0,207.88)" />
      <path
         id="path24"
         d="m 1134.44,551.16 c 0,15.336 10.27,25.676 26.36,25.676 3.62,0 6.96,-0.402 10.6,-1.727 0.63,-0.226 1.04,-0.843 1.04,-1.511 v -4.094 c 0,-1.152 -1.17,-1.906 -2.24,-1.488 -3.04,1.187 -6.55,1.488 -9.54,1.488 -10.82,0 -18.21,-6.981 -18.21,-18.344 0,-11.64 7.74,-18.422 18.35,-18.422 3.28,0 6.69,0.383 9.56,1.512 1.07,0.422 2.21,-0.359 2.21,-1.5 v -4.078 c 0,-0.641 -0.38,-1.25 -0.97,-1.481 -3.27,-1.32 -6.7,-1.781 -10.8,-1.781 -15.61,0 -26.36,10.481 -26.36,25.75"
         style="fill:#ffffff;fill-opacity:1;fill-rule:nonzero;stroke:none"
         transform="matrix(0.13333333,0,0,-0.13333333,0,207.88)" />
      <path
         id="path25"
         d="m 1185.4,575.809 h 4.51 c 0.89,0 1.61,-0.723 1.62,-1.618 l 0.05,-17.929 c 0.01,-0.891 0.73,-1.614 1.62,-1.614 h 23.28 c 0.88,0 1.61,0.723 1.61,1.614 l 0.06,17.929 c 0,0.895 0.73,1.618 1.62,1.618 h 4.5 c 0.9,0 1.62,-0.727 1.62,-1.621 v -46.059 c 0,-0.899 -0.72,-1.617 -1.62,-1.617 h -4.5 c -0.89,0 -1.62,0.718 -1.62,1.617 v 17.922 c 0,0.89 -0.72,1.621 -1.61,1.621 h -23.4 c -0.89,0 -1.62,-0.731 -1.62,-1.621 v -17.922 c 0,-0.899 -0.72,-1.617 -1.62,-1.617 h -4.5 c -0.89,0 -1.62,0.718 -1.62,1.617 v 46.059 c 0,0.894 0.73,1.621 1.62,1.621"
         style="fill:#ffffff;fill-opacity:1;fill-rule:nonzero;stroke:none"
         transform="matrix(0.13333333,0,0,-0.13333333,0,207.88)" />
      <path
         id="path26"
         d="m 1242.38,575.738 h 5.42 c 0.53,0 1.02,-0.254 1.32,-0.675 l 25.33,-35.473 h 0.41 l -0.13,34.523 c 0,0.895 0.72,1.625 1.62,1.625 h 4.49 c 0.89,0 1.62,-0.726 1.62,-1.621 v -45.988 c 0,-0.899 -0.73,-1.617 -1.62,-1.617 h -4.95 c -0.52,0 -1.01,0.25 -1.31,0.668 l -25.87,35.547 h -0.35 l 0.14,-34.598 c 0,-0.891 -0.73,-1.617 -1.62,-1.617 h -4.5 c -0.89,0 -1.62,0.718 -1.62,1.617 v 45.988 c 0,0.895 0.73,1.621 1.62,1.621"
         style="fill:#ffffff;fill-opacity:1;fill-rule:nonzero;stroke:none"
         transform="matrix(0.13333333,0,0,-0.13333333,0,207.88)" />
      <path
         id="path27"
         d="m 1337,551.16 c 0,11.227 -6.57,18.762 -17.32,18.762 -10.54,0 -17.19,-7.535 -17.19,-18.762 0,-11.5 6.85,-18.762 17.26,-18.762 10.74,0 17.25,7.262 17.25,18.762 z m -42.45,0 c 0,14.856 9.86,25.676 25.2,25.676 15.4,0 25.26,-10.82 25.26,-25.676 0,-14.789 -9.79,-25.75 -25.26,-25.75 -15.34,0 -25.2,10.961 -25.2,25.75"
         style="fill:#ffffff;fill-opacity:1;fill-rule:nonzero;stroke:none"
         transform="matrix(0.13333333,0,0,-0.13333333,0,207.88)" />
      <path
         id="path28"
         d="m 1358.72,575.871 h 4.51 c 0.89,0 1.61,-0.719 1.61,-1.609 l 0.13,-39.153 c 0.01,-0.89 0.73,-1.621 1.62,-1.621 h 16.9 c 0.89,0 1.61,-0.718 1.61,-1.609 v -3.68 c 0,-0.898 -0.72,-1.617 -1.61,-1.617 h -24.77 c -0.89,0 -1.61,0.719 -1.61,1.617 v 46.059 c 0,0.89 0.72,1.613 1.61,1.613"
         style="fill:#ffffff;fill-opacity:1;fill-rule:nonzero;stroke:none"
         transform="matrix(0.13333333,0,0,-0.13333333,0,207.88)" />
      <path
         id="path29"
         d="m 1433.26,551.16 c 0,11.227 -6.57,18.762 -17.32,18.762 -10.54,0 -17.18,-7.535 -17.18,-18.762 0,-11.5 6.84,-18.762 17.25,-18.762 10.74,0 17.25,7.262 17.25,18.762 z m -42.45,0 c 0,14.856 9.86,25.676 25.2,25.676 15.4,0 25.26,-10.82 25.26,-25.676 0,-14.789 -9.79,-25.75 -25.26,-25.75 -15.34,0 -25.2,10.961 -25.2,25.75"
         style="fill:#ffffff;fill-opacity:1;fill-rule:nonzero;stroke:none"
         transform="matrix(0.13333333,0,0,-0.13333333,0,207.88)" />
      <path
         id="path30"
         d="m 1450.6,551.23 c 0,15.813 10.34,25.606 25.81,25.606 4.97,0 9.65,-0.891 13.97,-2.785 0.59,-0.254 0.95,-0.844 0.95,-1.485 v -3.964 c 0,-1.18 -1.22,-1.969 -2.28,-1.465 -3.4,1.605 -7.27,2.367 -11.54,2.367 -10.69,0 -18.97,-6.434 -18.97,-18.274 0,-11.57 7.39,-18.421 18.62,-18.421 2.29,0 4.43,0.281 6.36,0.941 0.66,0.219 1.1,0.84 1.1,1.539 v 16.031 c 0,0.891 0.73,1.621 1.62,1.621 h 4.5 c 0.9,0 1.62,-0.73 1.62,-1.621 v -21.41 c 0,-0.64 -0.39,-1.25 -0.99,-1.488 -4.69,-1.922 -9.5,-2.942 -14.62,-2.942 -15.47,0 -26.15,9.661 -26.15,25.75"
         style="fill:#ffffff;fill-opacity:1;fill-rule:nonzero;stroke:none"
         transform="matrix(0.13333333,0,0,-0.13333333,0,207.88)" />
      <path
         id="path31"
         d="m 1517.22,546.191 -15.45,27.125 c -0.62,1.082 0.16,2.422 1.4,2.422 h 5.03 c 0.58,0 1.13,-0.32 1.41,-0.84 l 11.32,-20.519 h 0.55 l 11.38,20.527 c 0.29,0.512 0.83,0.832 1.41,0.832 h 4.79 c 1.23,0 2.01,-1.324 1.41,-2.406 l -15.09,-27.152 c -0.14,-0.231 -0.21,-0.508 -0.21,-0.782 v -17.269 c 0,-0.899 -0.72,-1.617 -1.61,-1.617 h -4.51 c -0.89,0 -1.61,0.718 -1.61,1.617 v 17.262 c 0,0.281 -0.08,0.558 -0.22,0.8"
         style="fill:#ffffff;fill-opacity:1;fill-rule:nonzero;stroke:none"
         transform="matrix(0.13333333,0,0,-0.13333333,0,207.88)" />
      <path
         id="path32"
         d="m 1631.28,530.781 v 3.789 c 0,1.192 1.25,2.012 2.32,1.481 4.79,-2.379 10.4,-3.582 14.8,-3.582 6.84,0 10.54,2.672 10.54,7.25 0,6.031 -6.71,6.992 -13.69,9.25 -6.91,2.121 -13.21,5.48 -13.21,14.379 0,8.894 7.05,13.488 16.91,13.488 5.64,0 10.49,-1.082 14.68,-3.238 0.54,-0.274 0.86,-0.836 0.86,-1.43 v -3.625 c 0,-1.199 -1.26,-1.977 -2.34,-1.441 -3.71,1.851 -8.17,2.82 -12.04,2.82 -6.71,0 -10.13,-2.195 -10.13,-6.504 0,-4.867 4.11,-6.227 9.24,-7.809 7.94,-2.398 17.67,-4.789 17.67,-15.539 0,-9.66 -7.19,-14.519 -17.81,-14.519 -5.24,0 -11.83,1.23 -16.93,3.789 -0.54,0.269 -0.87,0.832 -0.87,1.441"
         style="fill:#ffffff;fill-opacity:1;fill-rule:nonzero;stroke:none"
         transform="matrix(0.13333333,0,0,-0.13333333,0,207.88)" />
      <path
         id="path33"
         d="m 1686.73,568.891 h -11.28 c -0.89,0 -1.62,0.726 -1.62,1.621 v 3.676 c 0,0.894 0.73,1.621 1.62,1.621 h 33.87 c 0.9,0 1.62,-0.727 1.62,-1.621 v -3.676 c 0,-0.895 -0.72,-1.621 -1.62,-1.621 h -11.42 c -0.89,0 -1.62,-0.723 -1.62,-1.614 l -0.06,-39.156 c 0,-0.891 -0.72,-1.609 -1.61,-1.609 h -4.52 c -0.89,0 -1.61,0.718 -1.61,1.609 l -0.13,39.156 c 0,0.895 -0.73,1.614 -1.62,1.614"
         style="fill:#ffffff;fill-opacity:1;fill-rule:nonzero;stroke:none"
         transform="matrix(0.13333333,0,0,-0.13333333,0,207.88)" />
      <path
         id="path34"
         d="m 1742.2,551.641 c 4.87,0 8.22,3.148 8.22,8.488 0,6.226 -4.38,8.281 -10.41,8.281 h -9.81 c -0.9,0 -1.62,-0.722 -1.62,-1.613 V 553.25 c 0,-0.891 0.72,-1.609 1.62,-1.609 z m -0.61,-6.981 h -11.39 c -0.9,0 -1.62,-0.73 -1.62,-1.629 v -14.902 c 0,-0.899 -0.72,-1.617 -1.62,-1.617 h -4.5 c -0.89,0 -1.62,0.718 -1.62,1.617 v 45.988 c 0,0.895 0.73,1.621 1.62,1.621 l 18.04,-0.004 c 12.71,0 16.95,-5.261 17.95,-11.16 1.64,-9.664 -2,-15.836 -7.89,-17.793 v -0.41 c 5.14,-3.793 8.35,-9.699 8.72,-18.223 0.04,-0.929 -0.69,-1.707 -1.62,-1.707 h -5.59 c -0.86,0 -1.58,0.668 -1.62,1.52 -0.33,7.18 -3.08,12.711 -7.88,16.371 -0.27,0.207 -0.63,0.328 -0.98,0.328"
         style="fill:#ffffff;fill-opacity:1;fill-rule:nonzero;stroke:none"
         transform="matrix(0.13333333,0,0,-0.13333333,0,207.88)" />
      <path
         id="path35"
         d="m 1796.69,545.75 c 1.13,0 1.91,1.121 1.52,2.18 l -6.92,18.566 h -0.62 l -6.92,-18.566 c -0.39,-1.059 0.39,-2.18 1.51,-2.18 z m 3.81,-6.91 h -18.98 c -0.67,0 -1.28,-0.418 -1.51,-1.059 l -3.8,-10.222 c -0.24,-0.629 -0.84,-1.047 -1.52,-1.047 h -4.53 c -1.14,0 -1.92,1.136 -1.51,2.199 l 17.72,46.059 c 0.24,0.625 0.84,1.039 1.51,1.039 h 6.27 c 0.67,0 1.27,-0.414 1.51,-1.039 l 17.72,-46.059 c 0.4,-1.063 -0.38,-2.199 -1.51,-2.199 h -4.53 c -0.68,0 -1.28,0.418 -1.52,1.047 l -3.8,10.222 c -0.24,0.641 -0.84,1.059 -1.52,1.059"
         style="fill:#ffffff;fill-opacity:1;fill-rule:nonzero;stroke:none"
         transform="matrix(0.13333333,0,0,-0.13333333,0,207.88)" />
      <path
         id="path36"
         d="m 1826.57,568.891 h -11.29 c -0.89,0 -1.61,0.726 -1.61,1.621 v 3.676 c 0,0.894 0.72,1.621 1.61,1.621 h 33.88 c 0.89,0 1.61,-0.727 1.61,-1.621 v -3.676 c 0,-0.895 -0.72,-1.621 -1.61,-1.621 h -11.43 c -0.89,0 -1.61,-0.723 -1.61,-1.614 l -0.06,-39.156 c 0,-0.891 -0.73,-1.609 -1.62,-1.609 h -4.51 c -0.89,0 -1.61,0.718 -1.62,1.609 l -0.13,39.156 c 0,0.895 -0.72,1.614 -1.61,1.614"
         style="fill:#ffffff;fill-opacity:1;fill-rule:nonzero;stroke:none"
         transform="matrix(0.13333333,0,0,-0.13333333,0,207.88)" />
      <path
         id="path37"
         d="m 1862.3,575.809 h 26.48 c 0.89,0 1.61,-0.727 1.61,-1.621 v -3.676 c 0,-0.895 -0.72,-1.621 -1.61,-1.621 h -18.82 c -0.89,0 -1.61,-0.723 -1.61,-1.618 V 556.27 c 0,-0.899 0.72,-1.622 1.61,-1.622 h 16.62 c 0.9,0 1.62,-0.718 1.62,-1.617 v -3.75 c 0,-0.89 -0.72,-1.609 -1.62,-1.609 h -16.61 c -0.9,0 -1.62,-0.731 -1.61,-1.633 l 0.04,-11 c 0.01,-0.898 0.73,-1.609 1.63,-1.609 h 18.81 c 0.9,0 1.62,-0.731 1.62,-1.621 v -3.68 c 0,-0.899 -0.72,-1.617 -1.62,-1.617 h -26.54 c -0.9,0 -1.62,0.718 -1.62,1.617 v 46.059 c 0,0.894 0.72,1.621 1.62,1.621"
         style="fill:#ffffff;fill-opacity:1;fill-rule:nonzero;stroke:none"
         transform="matrix(0.13333333,0,0,-0.13333333,0,207.88)" />
      <path
         id="path38"
         d="m 1898.78,551.23 c 0,15.813 10.34,25.606 25.82,25.606 4.97,0 9.64,-0.891 13.97,-2.785 0.58,-0.254 0.95,-0.844 0.95,-1.485 v -3.964 c 0,-1.18 -1.22,-1.969 -2.29,-1.465 -3.39,1.605 -7.26,2.367 -11.54,2.367 -10.68,0 -18.97,-6.434 -18.97,-18.274 0,-11.57 7.4,-18.421 18.63,-18.421 2.28,0 4.43,0.281 6.35,0.941 0.66,0.219 1.11,0.84 1.11,1.539 v 16.031 c 0,0.891 0.72,1.621 1.61,1.621 h 4.51 c 0.89,0 1.62,-0.73 1.62,-1.621 v -21.41 c 0,-0.64 -0.39,-1.25 -1,-1.488 -4.69,-1.922 -9.5,-2.942 -14.61,-2.942 -15.48,0 -26.16,9.661 -26.16,25.75"
         style="fill:#ffffff;fill-opacity:1;fill-rule:nonzero;stroke:none"
         transform="matrix(0.13333333,0,0,-0.13333333,0,207.88)" />
      <path
         id="path39"
         d="m 1965.41,546.191 -15.46,27.125 c -0.61,1.082 0.16,2.422 1.4,2.422 h 5.03 c 0.59,0 1.13,-0.32 1.41,-0.84 l 11.32,-20.519 h 0.55 l 11.38,20.527 c 0.28,0.512 0.83,0.832 1.42,0.832 h 4.78 c 1.24,0 2.02,-1.324 1.42,-2.406 l -15.1,-27.152 c -0.13,-0.231 -0.2,-0.508 -0.2,-0.782 v -17.269 c 0,-0.899 -0.73,-1.617 -1.62,-1.617 h -4.5 c -0.9,0 -1.62,0.718 -1.62,1.617 v 17.262 c 0,0.281 -0.07,0.558 -0.21,0.8"
         style="fill:#ffffff;fill-opacity:1;fill-rule:nonzero;stroke:none"
         transform="matrix(0.13333333,0,0,-0.13333333,0,207.88)" />
      <path
         id="path40"
         d="m 2098.64,549.039 c 8.28,0 11.64,3.422 11.64,9.852 0,6.031 -3.36,10 -11.64,10 h -6.81 c -0.89,0 -1.61,-0.723 -1.61,-1.618 v -16.625 c 0,-0.886 0.72,-1.609 1.61,-1.609 z m -16.16,25.149 c 0,0.894 0.72,1.621 1.62,1.621 h 14.4 c 13.9,0 19.72,-6.579 19.72,-16.918 0,-10.743 -6.3,-16.77 -19.72,-16.77 h -6.67 c -0.89,0 -1.61,-0.73 -1.61,-1.621 v -12.371 c 0,-0.899 -0.73,-1.617 -1.62,-1.617 h -4.5 c -0.9,0 -1.62,0.718 -1.62,1.617 v 46.059"
         style="fill:#ffffff;fill-opacity:1;fill-rule:nonzero;stroke:none"
         transform="matrix(0.13333333,0,0,-0.13333333,0,207.88)" />
      <path
         id="path41"
         d="m 2169.34,551.16 c 0,11.227 -6.58,18.762 -17.32,18.762 -10.55,0 -17.19,-7.535 -17.19,-18.762 0,-11.5 6.85,-18.762 17.26,-18.762 10.74,0 17.25,7.262 17.25,18.762 z m -42.45,0 c 0,14.856 9.86,25.676 25.2,25.676 15.4,0 25.26,-10.82 25.26,-25.676 0,-14.789 -9.79,-25.75 -25.26,-25.75 -15.34,0 -25.2,10.961 -25.2,25.75"
         style="fill:#ffffff;fill-opacity:1;fill-rule:nonzero;stroke:none"
         transform="matrix(0.13333333,0,0,-0.13333333,0,207.88)" />
      <path
         id="path42"
         d="m 2191.06,575.871 h 4.51 c 0.89,0 1.61,-0.719 1.61,-1.609 l 0.13,-39.153 c 0,-0.89 0.72,-1.621 1.62,-1.621 h 16.9 c 0.89,0 1.61,-0.718 1.61,-1.609 v -3.68 c 0,-0.898 -0.72,-1.617 -1.61,-1.617 h -24.77 c -0.89,0 -1.62,0.719 -1.62,1.617 v 46.059 c 0,0.89 0.73,1.613 1.62,1.613"
         style="fill:#ffffff;fill-opacity:1;fill-rule:nonzero;stroke:none"
         transform="matrix(0.13333333,0,0,-0.13333333,0,207.88)" />
      <path
         id="path43"
         d="m 2229.08,575.809 h 4.44 c 0.89,0 1.61,-0.723 1.61,-1.618 l 0.07,-45.992 c 0,-0.898 -0.73,-1.617 -1.62,-1.617 h -4.5 c -0.89,0 -1.62,0.719 -1.62,1.617 v 45.989 c 0,0.894 0.73,1.621 1.62,1.621"
         style="fill:#ffffff;fill-opacity:1;fill-rule:nonzero;stroke:none"
         transform="matrix(0.13333333,0,0,-0.13333333,0,207.88)" />
      <path
         id="path44"
         d="m 2246.97,551.16 c 0,15.336 10.27,25.676 26.36,25.676 3.63,0 6.97,-0.402 10.6,-1.727 0.63,-0.226 1.04,-0.843 1.04,-1.511 v -4.094 c 0,-1.152 -1.16,-1.906 -2.24,-1.488 -3.03,1.187 -6.54,1.488 -9.54,1.488 -10.81,0 -18.21,-6.981 -18.21,-18.344 0,-11.64 7.74,-18.422 18.35,-18.422 3.29,0 6.7,0.383 9.57,1.512 1.06,0.422 2.21,-0.359 2.21,-1.5 v -4.078 c 0,-0.641 -0.38,-1.25 -0.98,-1.481 -3.27,-1.32 -6.69,-1.781 -10.8,-1.781 -15.61,0 -26.36,10.481 -26.36,25.75"
         style="fill:#ffffff;fill-opacity:1;fill-rule:nonzero;stroke:none"
         transform="matrix(0.13333333,0,0,-0.13333333,0,207.88)" />
      <path
         id="path45"
         d="m 2310.01,546.191 -15.46,27.125 c -0.62,1.082 0.16,2.422 1.4,2.422 h 5.03 c 0.59,0 1.13,-0.32 1.41,-0.84 l 11.32,-20.519 h 0.55 l 11.38,20.527 c 0.28,0.512 0.83,0.832 1.41,0.832 h 4.79 c 1.24,0 2.01,-1.324 1.41,-2.406 l -15.09,-27.152 c -0.14,-0.231 -0.21,-0.508 -0.21,-0.782 v -17.269 c 0,-0.899 -0.72,-1.617 -1.61,-1.617 h -4.5 c -0.9,0 -1.62,0.718 -1.62,1.617 v 17.262 c 0,0.281 -0.08,0.558 -0.21,0.8"
         style="fill:#ffffff;fill-opacity:1;fill-rule:nonzero;stroke:none"
         transform="matrix(0.13333333,0,0,-0.13333333,0,207.88)" />
      <path
         id="path46"
         d="m 1010.81,544.469 h -10.09 c -0.896,0 -1.618,0.722 -1.618,1.613 v 10.078 c 0,0.899 0.722,1.621 1.618,1.621 h 10.09 c 0.89,0 1.61,-0.722 1.61,-1.621 v -10.078 c 0,-0.891 -0.72,-1.613 -1.61,-1.613"
         style="fill:#ffffff;fill-opacity:1;fill-rule:nonzero;stroke:none"
         transform="matrix(0.13333333,0,0,-0.13333333,0,207.88)" />
      <path
         id="path47"
         d="m 1590.73,544.469 h -10.08 c -0.89,0 -1.62,0.722 -1.62,1.613 v 10.078 c 0,0.899 0.73,1.621 1.62,1.621 h 10.08 c 0.9,0 1.62,-0.722 1.62,-1.621 v -10.078 c 0,-0.891 -0.72,-1.613 -1.62,-1.613"
         style="fill:#ffffff;fill-opacity:1;fill-rule:nonzero;stroke:none"
         transform="matrix(0.13333333,0,0,-0.13333333,0,207.88)" />
      <path
         id="path48"
         d="m 2038.92,544.469 h -10.09 c -0.89,0 -1.62,0.722 -1.62,1.613 v 10.078 c 0,0.899 0.73,1.621 1.62,1.621 h 10.09 c 0.89,0 1.61,-0.722 1.61,-1.621 v -10.078 c 0,-0.891 -0.72,-1.613 -1.61,-1.613"
         style="fill:#ffffff;fill-opacity:1;fill-rule:nonzero;stroke:none"
         transform="matrix(0.13333333,0,0,-0.13333333,0,207.88)" />
    </g>
  </g>
</svg>
